<svg xmlns="http://www.w3.org/2000/svg" viewBox="0 0 239.5 325"><defs><style>.cls-1{fill:#0078d4;}.cls-2{fill:#ff8a02;}.cls-3{fill:none;stroke:#0078d4;stroke-miterlimit:10;stroke-width:35px;}</style></defs><g id="Layer_2" data-name="Layer 2"><g id="Objects"><path class="cls-1" d="M239.5,118.74V64.61A63.73,63.73,0,0,0,176,1.07H58.25a4.76,4.76,0,0,0-4.76,4.76V42.67h85.57c30.61,0,55.66,3.17,55.66,47.71V131c0,13.33-7,25.33-18,33.43a2,2,0,0,0-.23,3.25c8.52,7.78,18.24,17.95,18.24,29.06v40.64c0,50-25.05,47.7-55.66,47.7H53.49v34.09A4.83,4.83,0,0,0,58.3,324H176a63.74,63.74,0,0,0,63.55-63.55V206.31a58.48,58.48,0,0,0-16.27-40.44,4.83,4.83,0,0,1,0-6.68A58.5,58.5,0,0,0,239.5,118.74Z"/><rect class="cls-2" x="61.02" y="74.33" width="107.19" height="65.13" rx="6.75"/><rect class="cls-2" x="61.02" y="192.38" width="107.19" height="65.13" rx="6.75"/><line class="cls-3" x1="17.5" x2="17.5" y2="325"/></g></g></svg>